<?xml version="1.0" encoding="utf-8"?>
<!-- Generator: Adobe Illustrator 22.1.0, SVG Export Plug-In . SVG Version: 6.00 Build 0)  -->
<svg version="1.1" id="Capa_1" xmlns="http://www.w3.org/2000/svg" xmlns:xlink="http://www.w3.org/1999/xlink" x="0px" y="0px"
	 viewBox="0 0 818 204" style="enable-background:new 0 0 818 204;" xml:space="preserve" width="230" height="60">
<style type="text/css">
	.st0{fill:#000F9F;}
	.st1{fill:#38D430;}
</style>
<g>
	<path class="st0" d="M170.3,48.5c0,0,1.9,3.3,2.9,7.7c1.3,5.2,1.5,7,1.5,7c13.8,5.8,13.6,20.4,13.6,20.4c0,18-11.5,23.1-17.3,24.6
		c-0.6,0.1-1.2,0.1-1.8,0.1h-13c11.8-15.5,11-32.6,11-32.6c-2.9-63-64.3-57-64.6-57c-40.6,2.3-47,43.1-47,43.1
		c-7.7-1.1-14.3,0.9-19.5,3.8C24.5,72.2,17.5,85,18.4,98.2c1.1,16.7,13.3,31.1,33.4,31c0.1,0,0.2,0.1,0.2,0.1h56.8l0,0h55.9
		c8.3,0,16.6-2.2,23.5-6.9c8.9-6.1,17.2-15.8,17.4-31C205.8,59.2,180.9,49.3,170.3,48.5z M45.2,80.5c1.9-0.9,4.1-1.7,6.5-2.1
		c2.4-0.4,4.9-0.4,7.3-0.1c6,0.7,10.4,2.2,10.4,2.2s3.8-42.6,42.5-40c37.8,2.5,32.2,38.6,31.9,40.3c0,0,0,0,0,0
		c-2.1,12.1-9.9,18.7-17.2,22.3c-5.9,2.9-12.4,4.2-18.9,4.2H48.4c-4.1,0-7.2-0.7-10-3.8c-2.5-2.8-3.4-7.5-2.7-10.8
		C36.9,87.5,40.4,82.9,45.2,80.5z M144,80.8c0,0.1-0.1,0.1-0.1,0.1c0.2-0.6,0.3-1.2,0.4-1.8C144.2,80,144,80.5,144,80.8z"/>
	<g>
		<path class="st0" d="M253.9,152.8c-1.6-0.7-3.3-1-5.2-1.1c-2.2,0-4.2,0.5-5.8,1.4c-1.6,0.9-2.4,2.2-2.4,4c0,0.8,0.2,1.5,0.6,2.1
			c0.4,0.6,1.1,1.1,1.9,1.5c0.9,0.4,1.7,0.7,2.6,0.9c0.9,0.2,2,0.4,3.3,0.6c1.6,0.2,2.8,0.5,3.8,0.7c1,0.2,2.1,0.5,3.3,1
			c1.2,0.5,2.2,1,2.9,1.6c0.7,0.6,1.3,1.4,1.8,2.4c0.5,1,0.7,2.2,0.7,3.6c0,1.7-0.4,3.1-1.1,4.4c-0.8,1.3-1.8,2.2-3,2.9
			c-1.3,0.7-2.6,1.2-4.1,1.5c-1.4,0.3-2.9,0.5-4.5,0.5c-3,0-5.7-0.6-8-1.8c-2.4-1.2-4.1-3-5.2-5.5l3.2-1.9c1,1.8,2.4,3.1,4.2,4.1
			c1.9,1,3.8,1.4,5.8,1.4c1,0,2.1-0.1,3-0.3c1-0.2,1.9-0.5,2.8-0.9c0.9-0.4,1.6-1,2.2-1.8c0.6-0.8,0.8-1.7,0.8-2.8
			c0-0.9-0.2-1.7-0.7-2.4c-0.5-0.7-1.2-1.2-2.1-1.7c-0.9-0.4-1.9-0.7-2.8-1c-0.9-0.2-2.1-0.5-3.5-0.7c-1.4-0.2-2.6-0.4-3.6-0.6
			c-1-0.2-2-0.6-3.2-1c-1.1-0.4-2-0.9-2.7-1.5s-1.3-1.3-1.7-2.3s-0.7-2-0.7-3.2c0-1.5,0.3-2.9,1.1-4.1c0.7-1.2,1.7-2.1,2.9-2.8
			c1.2-0.7,2.5-1.1,3.9-1.5c1.4-0.3,2.8-0.5,4.2-0.5c2.7,0,5,0.4,7,1.2c2,0.8,3.6,2.3,4.9,4.5l-3,1.8
			C256.7,154.4,255.5,153.4,253.9,152.8z"/>
		<path class="st0" d="M268.6,160.9c2.2-2.2,4.9-3.2,8.2-3.2c3.4,0,6.1,1.1,8.3,3.2c2.2,2.2,3.2,4.9,3.2,8.4c0,3.3-1.1,6.1-3.2,8.2
			c-2.2,2.1-4.9,3.2-8.3,3.2c-3.3,0-6.1-1.1-8.2-3.2c-2.2-2.1-3.2-4.9-3.2-8.2C265.4,165.8,266.4,163.1,268.6,160.9z M282.5,163.3
			c-1.5-1.5-3.4-2.3-5.6-2.3c-2.3,0-4.1,0.8-5.6,2.3c-1.5,1.5-2.2,3.5-2.2,6c0,2.3,0.7,4.2,2.2,5.7c1.5,1.5,3.3,2.2,5.6,2.2
			s4.1-0.7,5.6-2.2c1.5-1.5,2.2-3.4,2.3-5.7C284.7,166.8,284,164.8,282.5,163.3z"/>
		<path class="st0" d="M297.6,180.3h-3.7v-31.4h3.7V180.3z"/>
		<path class="st0" d="M321.7,180.3l-0.2-3.5c-1.9,2.5-4.5,3.8-7.7,3.9c-2.9,0-5.2-0.9-7-2.8c-1.8-1.8-2.7-4.3-2.7-7.5v-12.2h3.7
			v12.2c0,2.2,0.6,3.8,1.8,5.1c1.2,1.2,2.8,1.8,4.9,1.8c2,0,3.6-0.7,4.9-2.1c1.3-1.4,1.9-3.1,1.9-5.1v-11.9h3.7v22.1H321.7
			L321.7,180.3z"/>
		<path class="st0" d="M350.2,177.3c-2.3,2.3-5,3.4-8.2,3.4c-3.3,0-6-1-8.2-3.1s-3.3-4.8-3.3-8.4c0-3.6,1.1-6.4,3.3-8.4s4.9-3,8.3-3
			c3.1,0,5.8,1.1,8,3.3l-2.3,2.4c-1.5-1.5-3.4-2.2-5.6-2.2c-2.3,0-4.2,0.7-5.7,2.2s-2.3,3.4-2.3,5.8c0,2.5,0.8,4.4,2.3,5.8
			s3.4,2.1,5.6,2.1c2.3,0,4.3-0.8,5.8-2.3L350.2,177.3L350.2,177.3z"/>
		<path class="st0" d="M355.6,149.2c0.8-0.4,1.6-0.4,2.4,0c0.8,0.4,1.2,1.1,1.2,2.2c0,1-0.4,1.7-1.2,2.1c-0.8,0.4-1.6,0.4-2.4,0
			c-0.8-0.4-1.2-1.1-1.2-2.2C354.4,150.4,354.8,149.6,355.6,149.2z M354.9,180.3h3.7V158h-3.7V180.3z"/>
		<path class="st0" d="M367.1,160.9c2.2-2.2,4.9-3.2,8.2-3.2c3.4,0,6.1,1.1,8.3,3.2c2.2,2.2,3.2,4.9,3.2,8.4c0,3.3-1.1,6.1-3.2,8.2
			c-2.2,2.1-4.9,3.2-8.3,3.2c-3.3,0-6.1-1.1-8.2-3.2c-2.2-2.1-3.2-4.9-3.2-8.2C363.8,165.8,364.9,163.1,367.1,160.9z M381,163.3
			c-1.5-1.5-3.4-2.3-5.6-2.3c-2.3,0-4.1,0.8-5.6,2.3c-1.5,1.5-2.2,3.5-2.2,6c0,2.3,0.7,4.2,2.2,5.7c1.5,1.5,3.3,2.2,5.6,2.2
			s4.1-0.7,5.6-2.2c1.5-1.5,2.2-3.4,2.3-5.7C383.2,166.8,382.5,164.8,381,163.3z"/>
		<path class="st0" d="M392.1,158.1h3.4l0.2,3.5c1.9-2.6,4.4-3.9,7.6-3.9c2.9,0,5.2,0.9,7,2.8c1.8,1.8,2.7,4.3,2.7,7.5v12.2h-3.7
			v-12.2c0-2.2-0.6-3.8-1.8-5.1s-2.8-1.8-4.9-1.8c-2,0-3.6,0.7-4.9,2.1c-1.3,1.4-1.9,3.1-1.9,5.1v11.9h-3.6V158.1L392.1,158.1z"/>
		<path class="st0" d="M439.1,176.7c-1.1,1.3-2.5,2.3-4.2,2.9c-1.7,0.7-3.5,1-5.3,1c-3.5,0-6.3-1.1-8.4-3.2s-3.2-4.9-3.2-8.4
			c0-3.3,1.1-6.1,3.2-8.2c2.2-2.2,4.9-3.2,8.2-3.2c3.6,0,6.4,1.1,8.5,3.3c2.1,2.2,2.9,5.4,2.5,9.7h-18.8c0.2,2,1.1,3.6,2.6,4.8
			c1.5,1.2,3.3,1.8,5.5,1.8c1.3,0,2.6-0.2,4-0.7c1.3-0.5,2.4-1.2,3.1-2L439.1,176.7L439.1,176.7z M437,167.6
			c-0.1-2.1-0.8-3.8-2.2-4.9c-1.3-1.2-3.1-1.7-5.3-1.7c-2,0-3.7,0.6-5.2,1.7c-1.5,1.2-2.3,2.8-2.6,4.8L437,167.6L437,167.6z"/>
		<path class="st0" d="M459.8,163.1c-1.6-1.4-3.7-2.2-6.2-2.2c-1.6,0-2.9,0.2-4,0.8c-1,0.6-1.5,1.4-1.5,2.4c0,1.8,1.9,2.9,5.5,3.3
			c1,0.1,1.9,0.2,2.6,0.4c0.7,0.1,1.5,0.3,2.4,0.7c1,0.3,1.7,0.7,2.3,1.1c0.6,0.4,1,1.1,1.5,1.9c0.4,0.8,0.6,1.7,0.6,2.8
			c0,2.1-0.9,3.8-2.7,4.9c-1.8,1.1-4,1.7-6.6,1.7c-4.4,0-7.7-1.4-9.9-4.2l2.1-2.6c1.9,2.3,4.5,3.4,7.9,3.4c1.5,0,2.8-0.3,3.9-0.8
			c1.1-0.5,1.7-1.4,1.7-2.6c0-1.1-0.5-1.9-1.5-2.4c-1-0.5-2.5-0.9-4.5-1.1c-1.3-0.2-2.3-0.3-3.2-0.6c-0.9-0.2-1.8-0.6-2.7-1
			c-0.9-0.5-1.6-1.1-2.1-1.9c-0.5-0.8-0.7-1.8-0.7-2.9c0-1.5,0.5-2.7,1.4-3.8c0.9-1,2-1.7,3.3-2.2c1.3-0.4,2.7-0.6,4.2-0.6
			c3.4,0,6.2,1,8.4,3L459.8,163.1L459.8,163.1z"/>
		<path class="st0" d="M475.4,152.4v-3.5h25.3v3.5H490v27.9h-3.9v-27.9H475.4z"/>
		<path class="st0" d="M519.4,176.7c-1.1,1.3-2.5,2.3-4.2,2.9c-1.7,0.7-3.5,1-5.3,1c-3.5,0-6.3-1.1-8.4-3.2
			c-2.2-2.1-3.2-4.9-3.2-8.4c0-3.3,1.1-6.1,3.2-8.2c2.2-2.2,4.9-3.2,8.2-3.2c3.6,0,6.4,1.1,8.5,3.3c2.1,2.2,2.9,5.4,2.5,9.7h-18.8
			c0.2,2,1.1,3.6,2.6,4.8c1.5,1.2,3.3,1.8,5.5,1.8c1.3,0,2.6-0.2,4-0.7c1.3-0.5,2.4-1.2,3.1-2L519.4,176.7L519.4,176.7z
			 M517.2,167.6c-0.1-2.1-0.8-3.8-2.2-4.9c-1.3-1.2-3.1-1.7-5.3-1.7c-2,0-3.7,0.6-5.2,1.7c-1.5,1.2-2.3,2.8-2.6,4.8L517.2,167.6
			L517.2,167.6z"/>
		<path class="st0" d="M544.2,177.3c-2.3,2.3-5,3.4-8.2,3.4c-3.3,0-6-1-8.2-3.1c-2.2-2-3.3-4.8-3.3-8.4c0-3.6,1.1-6.4,3.3-8.4
			s4.9-3,8.3-3c3.1,0,5.8,1.1,8,3.3l-2.3,2.4c-1.5-1.5-3.4-2.2-5.6-2.2c-2.3,0-4.2,0.7-5.7,2.2s-2.3,3.4-2.3,5.8
			c0,2.5,0.8,4.4,2.3,5.8s3.4,2.1,5.6,2.1c2.3,0,4.3-0.8,5.8-2.3L544.2,177.3L544.2,177.3z"/>
		<path class="st0" d="M548.9,158.1h3.4l0.2,3.5c1.9-2.6,4.4-3.9,7.6-3.9c2.9,0,5.2,0.9,7,2.8c1.8,1.8,2.7,4.3,2.7,7.5v12.2h-3.7
			v-12.2c0-2.2-0.6-3.8-1.8-5.1s-2.8-1.8-4.9-1.8c-2,0-3.6,0.7-4.9,2.1c-1.3,1.4-1.9,3.1-1.9,5.1v11.9h-3.6V158.1L548.9,158.1z"/>
		<path class="st0" d="M578,160.9c2.2-2.2,4.9-3.2,8.2-3.2c3.4,0,6.1,1.1,8.3,3.2c2.2,2.2,3.2,4.9,3.2,8.4c0,3.3-1.1,6.1-3.2,8.2
			c-2.2,2.1-4.9,3.2-8.3,3.2c-3.3,0-6.1-1.1-8.2-3.2c-2.2-2.1-3.2-4.9-3.2-8.2C574.7,165.8,575.8,163.1,578,160.9z M591.8,163.3
			c-1.5-1.5-3.4-2.3-5.6-2.3c-2.3,0-4.1,0.8-5.6,2.3s-2.2,3.5-2.2,6c0,2.3,0.7,4.2,2.2,5.7c1.5,1.5,3.3,2.2,5.6,2.2s4.1-0.7,5.6-2.2
			c1.5-1.5,2.2-3.4,2.3-5.7C594.1,166.8,593.3,164.8,591.8,163.3z"/>
		<path class="st0" d="M606.9,180.3h-3.7v-31.4h3.7V180.3z"/>
		<path class="st0" d="M635.2,169.2c0,3.3-1.1,6.1-3.2,8.2c-2.1,2.1-4.8,3.2-8.2,3.2c-3.3,0-6-1.1-8.2-3.2c-2.1-2.1-3.2-4.9-3.2-8.2
			c0-3.3,1.1-6.1,3.2-8.3s4.8-3.2,8.1-3.2c3.3,0,6,1.1,8.2,3.2S635.2,165.9,635.2,169.2L635.2,169.2z M616.2,169.2
			c0,2.3,0.7,4.2,2.2,5.7c1.4,1.5,3.3,2.2,5.6,2.2c2.3,0,4.1-0.7,5.6-2.2c1.4-1.5,2.2-3.4,2.2-5.7c0-2.3-0.7-4.3-2.2-5.8
			c-1.5-1.6-3.3-2.3-5.5-2.3c-2.2,0-4.1,0.8-5.5,2.3C616.9,164.9,616.2,166.9,616.2,169.2L616.2,169.2z M621.8,154.6h3.3l4.4-5.6
			v-0.1H625l-3.3,5.5V154.6z"/>
		<path class="st0" d="M645.2,188.5c1.5,1,3.4,1.5,5.6,1.6c2.2,0,4-0.4,5.5-1.3c1.5-0.9,2.3-2.2,2.3-4c0-1.7-0.7-3-2.2-3.9
			c-1.5-0.9-3.3-1.4-5.5-1.4c-3.5,0-6.4-1-8.5-2.9s-3.2-4.6-3.2-8c0-3.4,1.2-6.1,3.5-8.1c2.3-1.9,5.1-2.9,8.2-2.9
			c2.6,0,4.7,0.6,6.3,1.7l2.4-2.9l2.6,2.1l-2.5,3c1.9,2.2,2.9,4.5,2.9,7.2c0,2-0.5,3.9-1.6,5.5c-1.1,1.7-2.6,2.8-4.6,3.5
			c4.1,1.2,6.1,3.6,6.1,7.2c0,2.7-1.1,4.8-3.4,6.4c-2.3,1.5-5,2.3-8.2,2.3c-3.4,0-6.2-0.8-8.3-2.5c-2.1-1.7-3.1-4-3.1-6.9h3.5
			C642.9,186,643.7,187.5,645.2,188.5z M645.1,174.3c1.5,1.3,3.4,2,5.8,2c2.3,0,4.2-0.7,5.7-2.2c1.5-1.5,2.2-3.3,2.2-5.4
			c0-2.4-0.8-4.3-2.4-5.6c-1.6-1.3-3.5-2-5.7-2c-2.2,0-4,0.7-5.6,2c-1.6,1.3-2.4,3.2-2.4,5.6C642.8,171,643.6,172.9,645.1,174.3z"/>
		<path class="st0" d="M668.5,149.2c0.8-0.4,1.6-0.4,2.4,0c0.8,0.4,1.2,1.1,1.2,2.2c0,1-0.4,1.7-1.2,2.1c-0.8,0.4-1.6,0.4-2.4,0
			c-0.8-0.4-1.2-1.1-1.2-2.2C667.3,150.4,667.7,149.6,668.5,149.2z M667.8,180.3h3.7V158h-3.7V180.3z"/>
		<path class="st0" d="M696.6,177.3c-2.3,2.3-5,3.4-8.2,3.4c-3.3,0-6-1-8.2-3.1s-3.3-4.8-3.3-8.4c0-3.6,1.1-6.4,3.3-8.4s4.9-3,8.3-3
			c3.1,0,5.8,1.1,8,3.3l-2.3,2.4c-1.5-1.5-3.4-2.2-5.6-2.2c-2.3,0-4.2,0.7-5.7,2.2s-2.3,3.4-2.3,5.8c0,2.5,0.8,4.4,2.3,5.8
			s3.4,2.1,5.6,2.1c2.3,0,4.3-0.8,5.8-2.3L696.6,177.3L696.6,177.3z"/>
		<path class="st0" d="M719,180.4l-0.1-4c-0.8,1.5-2,2.6-3.5,3.3s-3,1.1-4.7,1.1c-3.3,0-6-1.1-8.1-3.2c-2.2-2.1-3.2-4.9-3.2-8.4
			c0-3.5,1.1-6.3,3.2-8.4s4.9-3.1,8.1-3.1c1.7,0,3.3,0.4,4.8,1.1s2.6,1.8,3.4,3.2l0-4h3.6v22.1L719,180.4L719,180.4z M710.9,161.3
			c-2.2,0-4.1,0.7-5.6,2.2c-1.5,1.5-2.3,3.4-2.3,5.8c0,2.4,0.8,4.4,2.3,5.9c1.5,1.5,3.4,2.2,5.6,2.2c1.5,0,2.8-0.3,3.9-0.9
			c1.1-0.6,2-1.4,2.6-2.3c0.6-1,1-2,1.3-3.2c0.3-1.2,0.3-2.3,0-3.4c-0.3-1.2-0.7-2.2-1.3-3.2c-0.6-1-1.5-1.7-2.6-2.3
			C713.8,161.5,712.5,161.2,710.9,161.3L710.9,161.3z"/>
		<path class="st0" d="M743.5,163.1c-1.6-1.4-3.7-2.2-6.2-2.2c-1.6,0-2.9,0.2-4,0.8c-1,0.6-1.5,1.4-1.5,2.4c0,1.8,1.9,2.9,5.5,3.3
			c1,0.1,1.9,0.2,2.6,0.4c0.7,0.1,1.5,0.3,2.4,0.7c1,0.3,1.7,0.7,2.3,1.1c0.6,0.4,1,1.1,1.5,1.9c0.4,0.8,0.6,1.7,0.6,2.8
			c0,2.1-0.9,3.8-2.7,4.9c-1.8,1.1-4,1.7-6.6,1.7c-4.4,0-7.7-1.4-9.9-4.2l2.1-2.6c1.9,2.3,4.5,3.4,7.9,3.4c1.5,0,2.8-0.3,3.9-0.8
			c1.1-0.5,1.7-1.4,1.7-2.6c0-1.1-0.5-1.9-1.5-2.4c-1-0.5-2.5-0.9-4.5-1.1c-1.3-0.2-2.3-0.3-3.2-0.6c-0.9-0.2-1.8-0.6-2.7-1
			c-0.9-0.5-1.6-1.1-2.1-1.9c-0.5-0.8-0.7-1.8-0.7-2.9c0-1.5,0.5-2.7,1.4-3.8c0.9-1,2-1.7,3.3-2.2c1.3-0.4,2.7-0.6,4.2-0.6
			c3.4,0,6.2,1,8.4,3L743.5,163.1L743.5,163.1z"/>
	</g>
	<g>
		<path class="st0" d="M789.5,43.6h-0.3l-4.9-6.9v11.1h-1.7V34.3h2l4.7,6.9l4.7-6.9h2v13.5h-1.7V36.8L789.5,43.6z"/>
		<path class="st0" d="M804.7,43h-3.3v4.9h-1.7V34.3h6.1c1.4,0,2.6,0.4,3.4,1.3c0.8,0.8,1.2,1.9,1.2,3c0,1.1-0.3,2.1-0.9,2.8
			c-0.6,0.8-1.6,1.2-2.9,1.3l4.5,5h-2.1L804.7,43z M808,40.7c0.5-0.5,0.8-1.2,0.8-2c0-0.7-0.2-1.4-0.8-2c-0.5-0.6-1.2-0.9-2.1-0.9
			h-4.5v5.6h4.4C806.7,41.5,807.5,41.2,808,40.7z"/>
	</g>
	<g>
		<path class="st1" d="M284.3,133.1c-15.6,0-27.7-4.6-36.1-13.9c-8.4-9.2-12.7-20.6-12.8-34c-0.1-8.6,1.6-16.5,5.1-23.7
			c3.5-7.2,9-13.2,16.6-18c7.6-4.8,16.7-7.2,27.2-7.2c13.3,0,24.7,4.7,34.3,14.1l-8,7.5c-7.1-7-15.8-10.5-26.3-10.5
			c-12,0-21.2,3.7-27.7,11c-6.5,7.3-9.7,16.2-9.6,26.7c0.2,10.4,3.4,19.1,9.8,26.2c6.3,7.1,15.5,10.7,27.5,10.7
			c10.5,0,19.4-3.6,26.7-10.9l8.2,8C309.8,128.4,298.2,133.1,284.3,133.1z"/>
		<path class="st1" d="M330,73.6c6.5-6.5,14.7-9.7,24.6-9.7c10.1,0,18.4,3.2,24.8,9.6c6.4,6.4,9.6,14.8,9.6,25.1
			c0,10-3.2,18.2-9.7,24.6c-6.5,6.4-14.7,9.6-24.7,9.6c-9.9,0-18.1-3.2-24.6-9.6c-6.5-6.4-9.7-14.6-9.7-24.6
			C320.2,88.4,323.5,80.1,330,73.6z M371.4,80.9c-4.5-4.6-10-6.9-16.7-6.9c-6.8,0-12.4,2.3-16.8,6.8c-4.4,4.6-6.6,10.5-6.6,17.8
			c0,7,2.2,12.7,6.6,17.1c4.4,4.5,10,6.7,16.7,6.7c6.8,0,12.4-2.2,16.8-6.7c4.4-4.5,6.7-10.2,6.8-17.1
			C378.1,91.4,375.9,85.5,371.4,80.9z"/>
		<path class="st1" d="M407.5,65.3l0.8,9.9c3.9-7.3,10.7-11,20.4-11c5.8-0.2,10.9,1.5,15.4,5l-5,9.4c-3.5-2.4-7.3-3.6-11.5-3.6
			c-5.4,0.1-10,1.9-13.8,5.6c-3.8,3.6-5.6,8.4-5.6,14.3v36.8h-11V65.4h10.2L407.5,65.3z"/>
		<path class="st1" d="M504,121c-3.2,3.8-7.4,6.8-12.6,8.8c-5.2,2-10.5,3-15.9,3c-10.4,0-18.8-3.1-25.2-9.4s-9.6-14.7-9.6-25.1
			c0-10,3.2-18.2,9.6-24.7c6.4-6.4,14.6-9.6,24.7-9.6c10.7,0,19.2,3.3,25.5,10c6.3,6.7,8.8,16.3,7.6,28.9h-56.3
			c0.6,6,3.2,10.8,7.6,14.4c4.5,3.6,9.9,5.4,16.3,5.4c3.9,0,7.9-0.7,11.9-2.2c4-1.5,7-3.5,9.2-6.1l7.4,6.7H504z M497.5,93.7
			c-0.3-6.3-2.4-11.2-6.4-14.7c-4-3.4-9.3-5.2-15.9-5.2c-6,0-11.2,1.7-15.5,5.2c-4.4,3.5-7,8.3-7.9,14.5h45.8V93.7z"/>
		<path class="st1" d="M558.1,80.1c-4.7-4.3-10.9-6.4-18.6-6.4c-4.8-0.1-8.8,0.7-11.9,2.4c-3.1,1.7-4.6,4.1-4.5,7.2
			c0.1,5.3,5.6,8.5,16.5,9.8c3.1,0.4,5.7,0.7,7.7,1.1c2,0.4,4.4,1,7.3,1.9c2.9,0.9,5.1,2.1,6.8,3.4c1.7,1.3,3.1,3.2,4.4,5.6
			c1.3,2.4,1.8,5.1,1.7,8.2c-0.1,6.3-2.8,11.2-8,14.7c-5.3,3.4-11.8,5.2-19.7,5.2c-13.1,0-23-4.2-29.6-12.5l6.3-7.6
			c5.5,6.8,13.4,10.2,23.6,10.2c4.4,0,8.2-0.8,11.6-2.4c3.3-1.6,5.1-4.2,5.2-7.9c0.1-3.3-1.4-5.7-4.5-7.2c-3.1-1.5-7.5-2.6-13.3-3.3
			c-3.8-0.4-7-1-9.6-1.7s-5.4-1.7-8.2-3.1c-2.8-1.3-4.9-3.2-6.4-5.6c-1.5-2.4-2.2-5.2-2.2-8.6c0-4.5,1.4-8.2,4.2-11.3
			c2.8-3,6.1-5.2,10-6.4c3.9-1.3,8.1-1.8,12.7-1.7c10.3,0,18.7,2.9,25.2,8.8l-6.3,7.2L558.1,80.1z"/>
		<path class="st1" d="M629.3,131.9l-0.3-12.1c-2.5,4.4-6,7.7-10.5,10c-4.5,2.3-9.1,3.4-13.9,3.4c-9.7,0-17.8-3.1-24.2-9.4
			c-6.4-6.3-9.6-14.7-9.6-25.3c0-10.5,3.2-18.8,9.7-25c6.5-6.2,14.6-9.3,24.3-9.2c5.1,0,9.9,1.1,14.3,3.4c4.5,2.3,7.9,5.5,10.2,9.7
			l0.1-12.1h10.7v66.2h-10.6L629.3,131.9z M605.2,74.8c-6.7,0-12.3,2.2-16.9,6.6c-4.6,4.4-6.8,10.3-6.8,17.5
			c0,7.2,2.3,13.1,6.8,17.6c4.6,4.5,10.2,6.7,16.9,6.7c4.4,0,8.3-0.9,11.7-2.7c3.4-1.8,6.1-4.1,7.8-7c1.8-2.9,3.1-6,3.9-9.4
			c0.8-3.4,0.8-6.9,0-10.3c-0.8-3.4-2.1-6.6-3.9-9.4c-1.8-2.9-4.4-5.2-7.8-7c-3.4-1.8-7.3-2.7-11.7-2.7L605.2,74.8z"/>
		<path class="st1" d="M681.7,37.8h11.7v93.8h-11.7V37.8z"/>
		<path class="st1" d="M700.5,48.2V37.8H776v10.5h-32v83.3h-11.5V48.2H700.5z"/>
	</g>
</g>
</svg>
